<svg width="340" height="200" viewBox="0 0 340 200" fill="none" xmlns="http://www.w3.org/2000/svg">
<rect width="340" height="200" rx="5" fill="#FAFAFA"/>
<path d="M196.073 106.084H144.551C142.391 106.084 140.639 104.332 140.639 102.172V75.3149C140.639 72.2285 143.141 69.7266 146.227 69.7266H196.073C198.234 69.7266 199.986 71.4781 199.986 73.6388V102.172C199.986 104.332 198.234 106.084 196.073 106.084Z" fill="#B5B6B6"/>
<path d="M200 78.1378V105.589C200 108.193 198.095 110.304 195.744 110.304H144.256C141.905 110.304 140 108.193 140 105.588V69.716C140 67.1116 141.905 65 144.256 65H155.077C155.241 65 155.402 65.0192 155.559 65.056C156.245 65.2172 156.725 65.8353 156.725 66.5397C156.725 70.7755 160.159 74.2094 164.395 74.2094H197.616C198.053 74.2094 198.472 74.3937 198.759 74.7237C199.527 75.6091 200 76.8123 200 78.1378Z" fill="#DDDDDD"/>
<path d="M192.098 108.909L147.895 108.899C146.739 108.899 145.802 107.962 145.802 106.806L145.808 77.6709C145.808 76.5148 146.746 75.5779 147.902 75.5781L192.106 75.5875C193.262 75.5878 194.199 76.5251 194.198 77.6811L194.192 106.816C194.192 107.972 193.255 108.909 192.098 108.909Z" fill="#E6E6E6"/>
<path d="M170.634 105.11L163.097 91.3399C162.171 89.6493 159.744 89.6466 158.815 91.3352L151.396 104.817C151.329 104.938 151.417 105.087 151.556 105.087L170.634 105.11Z" fill="#909090"/>
<path d="M188.605 104.859L177.283 84.1758C176.357 82.4852 173.93 82.4825 173.001 84.1711L161.486 105.097L188.444 105.129C188.583 105.129 188.671 104.981 188.605 104.859Z" fill="#747475"/>
<path d="M159.621 86.521C161.147 84.9949 161.147 82.5207 159.621 80.9946C158.095 79.4685 155.621 79.4685 154.094 80.9946C152.568 82.5207 152.568 84.9949 154.094 86.521C155.621 88.0471 158.095 88.0471 159.621 86.521Z" fill="#C1C1C1"/>
<path d="M106.568 138V126.8H108.12L114.968 135.968L114.712 136.112C114.669 135.845 114.632 135.557 114.6 135.248C114.568 134.928 114.536 134.592 114.504 134.24C114.483 133.877 114.461 133.499 114.44 133.104C114.429 132.699 114.419 132.277 114.408 131.84C114.397 131.403 114.392 130.949 114.392 130.48V126.8H116.12V138H114.536L107.8 129.168L107.976 128.944C108.029 129.595 108.072 130.149 108.104 130.608C108.147 131.056 108.179 131.44 108.2 131.76C108.232 132.069 108.253 132.325 108.264 132.528C108.275 132.72 108.28 132.88 108.28 133.008C108.291 133.136 108.296 133.248 108.296 133.344V138H106.568ZM122.616 138.16C121.794 138.16 121.058 137.973 120.408 137.6C119.768 137.216 119.261 136.699 118.888 136.048C118.514 135.387 118.328 134.635 118.328 133.792C118.328 132.949 118.514 132.203 118.888 131.552C119.261 130.891 119.768 130.373 120.408 130C121.058 129.616 121.794 129.424 122.616 129.424C123.426 129.424 124.152 129.616 124.792 130C125.442 130.373 125.954 130.891 126.328 131.552C126.701 132.203 126.888 132.949 126.888 133.792C126.888 134.635 126.701 135.387 126.328 136.048C125.954 136.699 125.442 137.216 124.792 137.6C124.152 137.973 123.426 138.16 122.616 138.16ZM122.616 136.656C123.117 136.656 123.565 136.533 123.96 136.288C124.354 136.032 124.664 135.691 124.888 135.264C125.112 134.827 125.218 134.336 125.208 133.792C125.218 133.237 125.112 132.747 124.888 132.32C124.664 131.883 124.354 131.541 123.96 131.296C123.565 131.051 123.117 130.928 122.616 130.928C122.114 130.928 121.661 131.056 121.256 131.312C120.861 131.557 120.552 131.899 120.328 132.336C120.104 132.763 119.997 133.248 120.008 133.792C119.997 134.336 120.104 134.827 120.328 135.264C120.552 135.691 120.861 136.032 121.256 136.288C121.661 136.533 122.114 136.656 122.616 136.656ZM133.44 138V129.6H135.088V138H133.44ZM134.24 127.744C133.888 127.744 133.616 127.653 133.424 127.472C133.232 127.291 133.136 127.035 133.136 126.704C133.136 126.395 133.232 126.144 133.424 125.952C133.626 125.76 133.898 125.664 134.24 125.664C134.592 125.664 134.864 125.755 135.056 125.936C135.248 126.117 135.344 126.373 135.344 126.704C135.344 127.013 135.242 127.264 135.04 127.456C134.848 127.648 134.581 127.744 134.24 127.744ZM137.589 138V129.6H139.253V131.392L138.949 131.584C139.034 131.307 139.167 131.04 139.349 130.784C139.541 130.528 139.77 130.304 140.037 130.112C140.314 129.909 140.607 129.749 140.917 129.632C141.237 129.515 141.562 129.456 141.893 129.456C142.373 129.456 142.794 129.536 143.157 129.696C143.519 129.856 143.818 130.096 144.053 130.416C144.287 130.736 144.458 131.136 144.565 131.616L144.309 131.552L144.421 131.28C144.538 131.035 144.698 130.805 144.901 130.592C145.114 130.368 145.354 130.171 145.621 130C145.887 129.829 146.17 129.696 146.469 129.6C146.767 129.504 147.061 129.456 147.349 129.456C147.978 129.456 148.495 129.584 148.901 129.84C149.317 130.096 149.626 130.485 149.829 131.008C150.042 131.531 150.149 132.181 150.149 132.96V138H148.485V133.056C148.485 132.576 148.421 132.187 148.293 131.888C148.175 131.579 147.994 131.349 147.749 131.2C147.503 131.051 147.189 130.976 146.805 130.976C146.506 130.976 146.223 131.029 145.957 131.136C145.701 131.232 145.477 131.371 145.285 131.552C145.093 131.733 144.943 131.947 144.837 132.192C144.73 132.427 144.677 132.688 144.677 132.976V138H143.013V133.024C143.013 132.587 142.949 132.219 142.821 131.92C142.693 131.611 142.506 131.376 142.261 131.216C142.015 131.056 141.717 130.976 141.365 130.976C141.066 130.976 140.789 131.029 140.533 131.136C140.277 131.232 140.053 131.371 139.861 131.552C139.669 131.723 139.519 131.931 139.413 132.176C139.306 132.411 139.253 132.667 139.253 132.944V138H137.589ZM155.587 138.16C154.894 138.16 154.259 137.968 153.683 137.584C153.118 137.2 152.664 136.677 152.323 136.016C151.982 135.355 151.811 134.608 151.811 133.776C151.811 132.933 151.982 132.187 152.323 131.536C152.675 130.875 153.144 130.357 153.731 129.984C154.328 129.611 154.995 129.424 155.731 129.424C156.168 129.424 156.568 129.488 156.931 129.616C157.294 129.744 157.608 129.925 157.875 130.16C158.152 130.384 158.376 130.645 158.547 130.944C158.728 131.243 158.84 131.563 158.883 131.904L158.515 131.776V129.6H160.179V138H158.515V136L158.899 135.888C158.835 136.176 158.702 136.459 158.499 136.736C158.307 137.003 158.056 137.243 157.747 137.456C157.448 137.669 157.112 137.84 156.739 137.968C156.376 138.096 155.992 138.16 155.587 138.16ZM156.019 136.64C156.52 136.64 156.963 136.517 157.347 136.272C157.731 136.027 158.03 135.691 158.243 135.264C158.467 134.827 158.579 134.331 158.579 133.776C158.579 133.232 158.467 132.747 158.243 132.32C158.03 131.893 157.731 131.557 157.347 131.312C156.963 131.067 156.52 130.944 156.019 130.944C155.528 130.944 155.091 131.067 154.707 131.312C154.334 131.557 154.035 131.893 153.811 132.32C153.598 132.747 153.491 133.232 153.491 133.776C153.491 134.331 153.598 134.827 153.811 135.264C154.035 135.691 154.334 136.027 154.707 136.272C155.091 136.517 155.528 136.64 156.019 136.64ZM166.24 141.68C165.643 141.68 165.045 141.584 164.448 141.392C163.861 141.211 163.387 140.971 163.024 140.672L163.632 139.392C163.845 139.552 164.096 139.691 164.384 139.808C164.672 139.936 164.976 140.032 165.296 140.096C165.616 140.171 165.931 140.208 166.24 140.208C166.827 140.208 167.317 140.112 167.712 139.92C168.107 139.728 168.405 139.445 168.608 139.072C168.811 138.699 168.912 138.235 168.912 137.68V136.064L169.088 136.176C169.035 136.507 168.859 136.827 168.56 137.136C168.272 137.435 167.909 137.68 167.472 137.872C167.035 138.064 166.587 138.16 166.128 138.16C165.328 138.16 164.613 137.973 163.984 137.6C163.365 137.216 162.875 136.699 162.512 136.048C162.149 135.387 161.968 134.635 161.968 133.792C161.968 132.949 162.144 132.203 162.496 131.552C162.859 130.891 163.349 130.373 163.968 130C164.597 129.616 165.301 129.424 166.08 129.424C166.4 129.424 166.709 129.467 167.008 129.552C167.307 129.627 167.584 129.739 167.84 129.888C168.096 130.027 168.325 130.181 168.528 130.352C168.731 130.523 168.896 130.704 169.024 130.896C169.152 131.088 169.232 131.269 169.264 131.44L168.912 131.568V129.6H170.56V137.488C170.56 138.16 170.459 138.752 170.256 139.264C170.064 139.787 169.781 140.224 169.408 140.576C169.035 140.939 168.581 141.211 168.048 141.392C167.515 141.584 166.912 141.68 166.24 141.68ZM166.304 136.64C166.827 136.64 167.291 136.517 167.696 136.272C168.101 136.027 168.416 135.691 168.64 135.264C168.864 134.837 168.976 134.347 168.976 133.792C168.976 133.237 168.859 132.747 168.624 132.32C168.4 131.883 168.085 131.541 167.68 131.296C167.285 131.051 166.827 130.928 166.304 130.928C165.792 130.928 165.333 131.056 164.928 131.312C164.533 131.557 164.219 131.899 163.984 132.336C163.76 132.763 163.648 133.248 163.648 133.792C163.648 134.336 163.76 134.827 163.984 135.264C164.219 135.691 164.533 136.027 164.928 136.272C165.333 136.517 165.792 136.64 166.304 136.64ZM176.791 138.16C175.927 138.16 175.159 137.979 174.487 137.616C173.825 137.243 173.303 136.736 172.919 136.096C172.545 135.456 172.359 134.72 172.359 133.888C172.359 133.227 172.465 132.624 172.679 132.08C172.892 131.536 173.185 131.067 173.559 130.672C173.943 130.267 174.396 129.957 174.919 129.744C175.452 129.52 176.028 129.408 176.647 129.408C177.191 129.408 177.697 129.515 178.167 129.728C178.636 129.931 179.041 130.213 179.383 130.576C179.735 130.939 180.001 131.371 180.183 131.872C180.375 132.363 180.465 132.901 180.455 133.488L180.439 134.192H173.575L173.207 132.88H179.015L178.775 133.152V132.768C178.743 132.416 178.625 132.101 178.423 131.824C178.22 131.547 177.964 131.328 177.655 131.168C177.345 131.008 177.009 130.928 176.647 130.928C176.071 130.928 175.585 131.04 175.191 131.264C174.796 131.477 174.497 131.797 174.295 132.224C174.092 132.64 173.991 133.157 173.991 133.776C173.991 134.363 174.113 134.875 174.359 135.312C174.604 135.739 174.951 136.069 175.399 136.304C175.847 136.539 176.364 136.656 176.951 136.656C177.367 136.656 177.751 136.587 178.103 136.448C178.465 136.309 178.855 136.059 179.271 135.696L180.103 136.864C179.847 137.12 179.532 137.344 179.159 137.536C178.796 137.728 178.407 137.883 177.991 138C177.585 138.107 177.185 138.16 176.791 138.16ZM187.146 138V126.8H188.874V138H187.146ZM187.914 133.232V131.568H193.69V133.232H187.914ZM187.914 128.464V126.8H194.41V128.464H187.914ZM199.897 138.16C199.075 138.16 198.339 137.973 197.689 137.6C197.049 137.216 196.542 136.699 196.169 136.048C195.795 135.387 195.609 134.635 195.609 133.792C195.609 132.949 195.795 132.203 196.169 131.552C196.542 130.891 197.049 130.373 197.689 130C198.339 129.616 199.075 129.424 199.897 129.424C200.707 129.424 201.433 129.616 202.073 130C202.723 130.373 203.235 130.891 203.609 131.552C203.982 132.203 204.169 132.949 204.169 133.792C204.169 134.635 203.982 135.387 203.609 136.048C203.235 136.699 202.723 137.216 202.073 137.6C201.433 137.973 200.707 138.16 199.897 138.16ZM199.897 136.656C200.398 136.656 200.846 136.533 201.241 136.288C201.635 136.032 201.945 135.691 202.169 135.264C202.393 134.827 202.499 134.336 202.489 133.792C202.499 133.237 202.393 132.747 202.169 132.32C201.945 131.883 201.635 131.541 201.241 131.296C200.846 131.051 200.398 130.928 199.897 130.928C199.395 130.928 198.942 131.056 198.537 131.312C198.142 131.557 197.833 131.899 197.609 132.336C197.385 132.763 197.278 133.248 197.289 133.792C197.278 134.336 197.385 134.827 197.609 135.264C197.833 135.691 198.142 136.032 198.537 136.288C198.942 136.533 199.395 136.656 199.897 136.656ZM208.909 138.16C208.311 138.16 207.789 138.021 207.341 137.744C206.903 137.467 206.562 137.077 206.317 136.576C206.082 136.075 205.965 135.477 205.965 134.784V129.6H207.613V134.336C207.613 134.827 207.687 135.253 207.837 135.616C207.997 135.968 208.221 136.24 208.509 136.432C208.807 136.624 209.165 136.72 209.581 136.72C209.89 136.72 210.173 136.672 210.429 136.576C210.685 136.469 210.903 136.325 211.085 136.144C211.277 135.963 211.426 135.744 211.533 135.488C211.639 135.232 211.693 134.955 211.693 134.656V129.6H213.341V138H211.693V136.24L211.981 136.048C211.853 136.443 211.634 136.8 211.325 137.12C211.026 137.44 210.669 137.696 210.253 137.888C209.837 138.069 209.389 138.16 208.909 138.16ZM215.652 138V129.6H217.3V131.328L217.012 131.52C217.119 131.147 217.327 130.805 217.636 130.496C217.945 130.176 218.313 129.92 218.74 129.728C219.167 129.525 219.604 129.424 220.052 129.424C220.692 129.424 221.225 129.552 221.652 129.808C222.079 130.053 222.399 130.432 222.612 130.944C222.825 131.456 222.932 132.101 222.932 132.88V138H221.284V132.992C221.284 132.512 221.22 132.117 221.092 131.808C220.964 131.488 220.767 131.259 220.5 131.12C220.233 130.971 219.903 130.907 219.508 130.928C219.188 130.928 218.895 130.981 218.628 131.088C218.361 131.184 218.127 131.323 217.924 131.504C217.732 131.685 217.577 131.899 217.46 132.144C217.353 132.379 217.3 132.635 217.3 132.912V138H216.484C216.345 138 216.207 138 216.068 138C215.929 138 215.791 138 215.652 138ZM228.672 138.16C227.904 138.16 227.216 137.973 226.608 137.6C226.01 137.216 225.536 136.699 225.184 136.048C224.832 135.387 224.656 134.635 224.656 133.792C224.656 132.949 224.826 132.203 225.168 131.552C225.52 130.891 225.994 130.373 226.592 130C227.189 129.616 227.866 129.424 228.624 129.424C229.04 129.424 229.44 129.493 229.824 129.632C230.218 129.76 230.57 129.941 230.88 130.176C231.189 130.4 231.429 130.651 231.6 130.928C231.781 131.195 231.872 131.467 231.872 131.744L231.392 131.776V126.16H233.04V138H231.392V136H231.712C231.712 136.256 231.626 136.512 231.456 136.768C231.285 137.013 231.056 137.243 230.768 137.456C230.49 137.669 230.165 137.84 229.792 137.968C229.429 138.096 229.056 138.16 228.672 138.16ZM228.896 136.736C229.397 136.736 229.84 136.608 230.224 136.352C230.608 136.096 230.906 135.749 231.12 135.312C231.344 134.864 231.456 134.357 231.456 133.792C231.456 133.227 231.344 132.725 231.12 132.288C230.906 131.84 230.608 131.488 230.224 131.232C229.84 130.976 229.397 130.848 228.896 130.848C228.394 130.848 227.952 130.976 227.568 131.232C227.184 131.488 226.88 131.84 226.656 132.288C226.442 132.725 226.336 133.227 226.336 133.792C226.336 134.357 226.442 134.864 226.656 135.312C226.88 135.749 227.184 136.096 227.568 136.352C227.952 136.608 228.394 136.736 228.896 136.736Z" fill="#717171"/>
</svg>
