<svg width="130" height="84" viewBox="0 0 130 84" fill="none" xmlns="http://www.w3.org/2000/svg">
<path d="M91.0733 48.084H39.5514C37.3907 48.084 35.6392 46.3324 35.6392 44.1717V17.3149C35.6392 14.2285 38.1411 11.7266 41.2275 11.7266H91.0733C93.234 11.7266 94.9856 13.4781 94.9856 15.6388V44.1717C94.9856 46.3324 93.234 48.084 91.0733 48.084Z" fill="#B5B6B6"/>
<path d="M95 20.1378V47.5886C95 50.1931 93.0947 52.3044 90.7441 52.3044H39.2559C36.9053 52.3044 35 50.1931 35 47.5883V11.716C35 9.11156 36.9053 7 39.2556 7H50.0765C50.241 7 50.4025 7.01918 50.5589 7.05599C51.2446 7.21722 51.7253 7.83528 51.7253 8.53969C51.7253 12.7755 55.1591 16.2094 59.395 16.2094H92.616C93.053 16.2094 93.4723 16.3937 93.7588 16.7237C94.5275 17.6091 95 18.8123 95 20.1378Z" fill="#DDDDDD"/>
<path d="M87.0985 50.9087L42.8948 50.8993C41.7387 50.8991 40.8018 49.9617 40.802 48.8057L40.8082 19.6709C40.8084 18.5148 41.7458 17.5779 42.9018 17.5781L87.1055 17.5875C88.2616 17.5878 89.1985 18.5251 89.1983 19.6811L89.1921 48.8159C89.1919 49.972 88.2545 50.9089 87.0985 50.9087Z" fill="#E6E6E6"/>
<path d="M65.6343 47.1101L58.0966 33.3399C57.1711 31.6493 54.7438 31.6466 53.8146 33.3352L46.3959 46.8168C46.329 46.9383 46.4169 47.0871 46.5556 47.0873L65.6343 47.1101Z" fill="#909090"/>
<path d="M83.6047 46.859L72.2828 26.1758C71.3574 24.4852 68.9301 24.4825 68.0009 26.1711L56.4858 47.0968L83.4444 47.1291C83.5831 47.1293 83.6713 46.9807 83.6047 46.859Z" fill="#747475"/>
<path d="M54.6209 28.521C56.147 26.9949 56.147 24.5207 54.6209 22.9946C53.0948 21.4685 50.6206 21.4685 49.0945 22.9946C47.5684 24.5207 47.5684 26.9949 49.0945 28.521C50.6206 30.0471 53.0948 30.0471 54.6209 28.521Z" fill="#C1C1C1"/>
<path d="M1.568 80V68.8H3.12L9.968 77.968L9.712 78.112C9.66933 77.8453 9.632 77.5573 9.6 77.248C9.568 76.928 9.536 76.592 9.504 76.24C9.48267 75.8773 9.46133 75.4987 9.44 75.104C9.42933 74.6987 9.41867 74.2773 9.408 73.84C9.39733 73.4027 9.392 72.9493 9.392 72.48V68.8H11.12V80H9.536L2.8 71.168L2.976 70.944C3.02933 71.5947 3.072 72.1493 3.104 72.608C3.14667 73.056 3.17867 73.44 3.2 73.76C3.232 74.0693 3.25333 74.3253 3.264 74.528C3.27467 74.72 3.28 74.88 3.28 75.008C3.29067 75.136 3.296 75.248 3.296 75.344V80H1.568ZM17.6155 80.16C16.7942 80.16 16.0582 79.9733 15.4075 79.6C14.7675 79.216 14.2608 78.6987 13.8875 78.048C13.5142 77.3867 13.3275 76.6347 13.3275 75.792C13.3275 74.9493 13.5142 74.2027 13.8875 73.552C14.2608 72.8907 14.7675 72.3733 15.4075 72C16.0582 71.616 16.7942 71.424 17.6155 71.424C18.4262 71.424 19.1515 71.616 19.7915 72C20.4422 72.3733 20.9542 72.8907 21.3275 73.552C21.7008 74.2027 21.8875 74.9493 21.8875 75.792C21.8875 76.6347 21.7008 77.3867 21.3275 78.048C20.9542 78.6987 20.4422 79.216 19.7915 79.6C19.1515 79.9733 18.4262 80.16 17.6155 80.16ZM17.6155 78.656C18.1168 78.656 18.5648 78.5333 18.9595 78.288C19.3542 78.032 19.6635 77.6907 19.8875 77.264C20.1115 76.8267 20.2182 76.336 20.2075 75.792C20.2182 75.2373 20.1115 74.7467 19.8875 74.32C19.6635 73.8827 19.3542 73.5413 18.9595 73.296C18.5648 73.0507 18.1168 72.928 17.6155 72.928C17.1142 72.928 16.6608 73.056 16.2555 73.312C15.8608 73.5573 15.5515 73.8987 15.3275 74.336C15.1035 74.7627 14.9968 75.248 15.0075 75.792C14.9968 76.336 15.1035 76.8267 15.3275 77.264C15.5515 77.6907 15.8608 78.032 16.2555 78.288C16.6608 78.5333 17.1142 78.656 17.6155 78.656ZM28.4396 80V71.6H30.0876V80H28.4396ZM29.2396 69.744C28.8876 69.744 28.6156 69.6533 28.4236 69.472C28.2316 69.2907 28.1356 69.0347 28.1356 68.704C28.1356 68.3947 28.2316 68.144 28.4236 67.952C28.6263 67.76 28.8983 67.664 29.2396 67.664C29.5916 67.664 29.8636 67.7547 30.0556 67.936C30.2476 68.1173 30.3436 68.3733 30.3436 68.704C30.3436 69.0133 30.2423 69.264 30.0396 69.456C29.8476 69.648 29.581 69.744 29.2396 69.744ZM32.5888 80V71.6H34.2528V73.392L33.9488 73.584C34.0341 73.3067 34.1674 73.04 34.3488 72.784C34.5408 72.528 34.7701 72.304 35.0368 72.112C35.3141 71.9093 35.6074 71.7493 35.9168 71.632C36.2368 71.5147 36.5621 71.456 36.8928 71.456C37.3728 71.456 37.7941 71.536 38.1568 71.696C38.5194 71.856 38.8181 72.096 39.0528 72.416C39.2874 72.736 39.4581 73.136 39.5648 73.616L39.3088 73.552L39.4208 73.28C39.5381 73.0347 39.6981 72.8053 39.9008 72.592C40.1141 72.368 40.3541 72.1707 40.6208 72C40.8874 71.8293 41.1701 71.696 41.4688 71.6C41.7674 71.504 42.0608 71.456 42.3488 71.456C42.9781 71.456 43.4954 71.584 43.9008 71.84C44.3168 72.096 44.6261 72.4853 44.8288 73.008C45.0421 73.5307 45.1488 74.1813 45.1488 74.96V80H43.4848V75.056C43.4848 74.576 43.4208 74.1867 43.2928 73.888C43.1754 73.5787 42.9941 73.3493 42.7488 73.2C42.5034 73.0507 42.1888 72.976 41.8048 72.976C41.5061 72.976 41.2234 73.0293 40.9568 73.136C40.7008 73.232 40.4768 73.3707 40.2847 73.552C40.0928 73.7333 39.9434 73.9467 39.8368 74.192C39.7301 74.4267 39.6768 74.688 39.6768 74.976V80H38.0128V75.024C38.0128 74.5867 37.9488 74.2187 37.8208 73.92C37.6928 73.6107 37.5061 73.376 37.2608 73.216C37.0154 73.056 36.7168 72.976 36.3648 72.976C36.0661 72.976 35.7888 73.0293 35.5328 73.136C35.2768 73.232 35.0528 73.3707 34.8608 73.552C34.6688 73.7227 34.5194 73.9307 34.4128 74.176C34.3061 74.4107 34.2528 74.6667 34.2528 74.944V80H32.5888ZM50.5871 80.16C49.8938 80.16 49.2591 79.968 48.6831 79.584C48.1178 79.2 47.6645 78.6773 47.3231 78.016C46.9818 77.3547 46.8111 76.608 46.8111 75.776C46.8111 74.9333 46.9818 74.1867 47.3231 73.536C47.6751 72.8747 48.1445 72.3573 48.7311 71.984C49.3285 71.6107 49.9951 71.424 50.7311 71.424C51.1685 71.424 51.5685 71.488 51.9311 71.616C52.2938 71.744 52.6085 71.9253 52.8751 72.16C53.1525 72.384 53.3765 72.6453 53.5471 72.944C53.7285 73.2427 53.8405 73.5627 53.8831 73.904L53.5151 73.776V71.6H55.1791V80H53.5151V78L53.8991 77.888C53.8351 78.176 53.7018 78.4587 53.4991 78.736C53.3071 79.0027 53.0565 79.2427 52.7471 79.456C52.4485 79.6693 52.1125 79.84 51.7391 79.968C51.3765 80.096 50.9925 80.16 50.5871 80.16ZM51.0191 78.64C51.5205 78.64 51.9631 78.5173 52.3471 78.272C52.7311 78.0267 53.0298 77.6907 53.2431 77.264C53.4671 76.8267 53.5791 76.3307 53.5791 75.776C53.5791 75.232 53.4671 74.7467 53.2431 74.32C53.0298 73.8933 52.7311 73.5573 52.3471 73.312C51.9631 73.0667 51.5205 72.944 51.0191 72.944C50.5285 72.944 50.0911 73.0667 49.7071 73.312C49.3338 73.5573 49.0351 73.8933 48.8111 74.32C48.5978 74.7467 48.4911 75.232 48.4911 75.776C48.4911 76.3307 48.5978 76.8267 48.8111 77.264C49.0351 77.6907 49.3338 78.0267 49.7071 78.272C50.0911 78.5173 50.5285 78.64 51.0191 78.64ZM61.2401 83.68C60.6428 83.68 60.0455 83.584 59.4481 83.392C58.8615 83.2107 58.3868 82.9707 58.0241 82.672L58.6321 81.392C58.8455 81.552 59.0961 81.6907 59.3841 81.808C59.6721 81.936 59.9761 82.032 60.2961 82.096C60.6161 82.1707 60.9308 82.208 61.2401 82.208C61.8268 82.208 62.3175 82.112 62.7121 81.92C63.1068 81.728 63.4055 81.4453 63.6081 81.072C63.8108 80.6987 63.9121 80.2347 63.9121 79.68V78.064L64.0881 78.176C64.0348 78.5067 63.8588 78.8267 63.5601 79.136C63.2721 79.4347 62.9095 79.68 62.4721 79.872C62.0348 80.064 61.5868 80.16 61.1281 80.16C60.3281 80.16 59.6135 79.9733 58.9841 79.6C58.3655 79.216 57.8748 78.6987 57.5121 78.048C57.1495 77.3867 56.9681 76.6347 56.9681 75.792C56.9681 74.9493 57.1441 74.2027 57.4961 73.552C57.8588 72.8907 58.3495 72.3733 58.9681 72C59.5975 71.616 60.3015 71.424 61.0801 71.424C61.4001 71.424 61.7095 71.4667 62.0081 71.552C62.3068 71.6267 62.5841 71.7387 62.8401 71.888C63.0961 72.0267 63.3255 72.1813 63.5281 72.352C63.7308 72.5227 63.8961 72.704 64.0241 72.896C64.1521 73.088 64.2321 73.2693 64.2641 73.44L63.9121 73.568V71.6H65.5601V79.488C65.5601 80.16 65.4588 80.752 65.2561 81.264C65.0641 81.7867 64.7815 82.224 64.4081 82.576C64.0348 82.9387 63.5815 83.2107 63.0481 83.392C62.5148 83.584 61.9121 83.68 61.2401 83.68ZM61.3041 78.64C61.8268 78.64 62.2908 78.5173 62.6961 78.272C63.1015 78.0267 63.4161 77.6907 63.6401 77.264C63.8641 76.8373 63.9761 76.3467 63.9761 75.792C63.9761 75.2373 63.8588 74.7467 63.6241 74.32C63.4001 73.8827 63.0855 73.5413 62.6801 73.296C62.2855 73.0507 61.8268 72.928 61.3041 72.928C60.7921 72.928 60.3335 73.056 59.9281 73.312C59.5335 73.5573 59.2188 73.8987 58.9841 74.336C58.7601 74.7627 58.6481 75.248 58.6481 75.792C58.6481 76.336 58.7601 76.8267 58.9841 77.264C59.2188 77.6907 59.5335 78.0267 59.9281 78.272C60.3335 78.5173 60.7921 78.64 61.3041 78.64ZM71.7908 80.16C70.9268 80.16 70.1588 79.9787 69.4868 79.616C68.8254 79.2427 68.3028 78.736 67.9188 78.096C67.5454 77.456 67.3588 76.72 67.3588 75.888C67.3588 75.2267 67.4654 74.624 67.6788 74.08C67.8921 73.536 68.1854 73.0667 68.5588 72.672C68.9428 72.2667 69.3961 71.9573 69.9188 71.744C70.4521 71.52 71.0281 71.408 71.6468 71.408C72.1908 71.408 72.6974 71.5147 73.1668 71.728C73.6361 71.9307 74.0414 72.2133 74.3828 72.576C74.7348 72.9387 75.0014 73.3707 75.1828 73.872C75.3748 74.3627 75.4654 74.9013 75.4548 75.488L75.4388 76.192H68.5748L68.2068 74.88H74.0148L73.7748 75.152V74.768C73.7428 74.416 73.6254 74.1013 73.4228 73.824C73.2201 73.5467 72.9641 73.328 72.6548 73.168C72.3454 73.008 72.0094 72.928 71.6468 72.928C71.0708 72.928 70.5854 73.04 70.1908 73.264C69.7961 73.4773 69.4974 73.7973 69.2948 74.224C69.0921 74.64 68.9908 75.1573 68.9908 75.776C68.9908 76.3627 69.1134 76.8747 69.3588 77.312C69.6041 77.7387 69.9508 78.0693 70.3988 78.304C70.8468 78.5387 71.3641 78.656 71.9508 78.656C72.3668 78.656 72.7508 78.5867 73.1028 78.448C73.4654 78.3093 73.8548 78.0587 74.2708 77.696L75.1028 78.864C74.8468 79.12 74.5321 79.344 74.1588 79.536C73.7961 79.728 73.4068 79.8827 72.9908 80C72.5854 80.1067 72.1854 80.16 71.7908 80.16ZM82.1461 80V68.8H83.8741V80H82.1461ZM82.9141 75.232V73.568H88.6901V75.232H82.9141ZM82.9141 70.464V68.8H89.4101V70.464H82.9141ZM94.8968 80.16C94.0754 80.16 93.3394 79.9733 92.6888 79.6C92.0488 79.216 91.5421 78.6987 91.1688 78.048C90.7954 77.3867 90.6088 76.6347 90.6088 75.792C90.6088 74.9493 90.7954 74.2027 91.1688 73.552C91.5421 72.8907 92.0488 72.3733 92.6888 72C93.3394 71.616 94.0754 71.424 94.8968 71.424C95.7074 71.424 96.4328 71.616 97.0728 72C97.7234 72.3733 98.2354 72.8907 98.6088 73.552C98.9821 74.2027 99.1688 74.9493 99.1688 75.792C99.1688 76.6347 98.9821 77.3867 98.6088 78.048C98.2354 78.6987 97.7234 79.216 97.0728 79.6C96.4328 79.9733 95.7074 80.16 94.8968 80.16ZM94.8968 78.656C95.3981 78.656 95.8461 78.5333 96.2408 78.288C96.6354 78.032 96.9448 77.6907 97.1688 77.264C97.3928 76.8267 97.4994 76.336 97.4888 75.792C97.4994 75.2373 97.3928 74.7467 97.1688 74.32C96.9448 73.8827 96.6354 73.5413 96.2408 73.296C95.8461 73.0507 95.3981 72.928 94.8968 72.928C94.3954 72.928 93.9421 73.056 93.5368 73.312C93.1421 73.5573 92.8328 73.8987 92.6088 74.336C92.3848 74.7627 92.2781 75.248 92.2888 75.792C92.2781 76.336 92.3848 76.8267 92.6088 77.264C92.8328 77.6907 93.1421 78.032 93.5368 78.288C93.9421 78.5333 94.3954 78.656 94.8968 78.656ZM103.909 80.16C103.311 80.16 102.789 80.0213 102.341 79.744C101.903 79.4667 101.562 79.0773 101.317 78.576C101.082 78.0747 100.965 77.4773 100.965 76.784V71.6H102.613V76.336C102.613 76.8267 102.687 77.2533 102.837 77.616C102.997 77.968 103.221 78.24 103.509 78.432C103.807 78.624 104.165 78.72 104.581 78.72C104.89 78.72 105.173 78.672 105.429 78.576C105.685 78.4693 105.903 78.3253 106.085 78.144C106.277 77.9627 106.426 77.744 106.533 77.488C106.639 77.232 106.693 76.9547 106.693 76.656V71.6H108.341V80H106.693V78.24L106.981 78.048C106.853 78.4427 106.634 78.8 106.325 79.12C106.026 79.44 105.669 79.696 105.253 79.888C104.837 80.0693 104.389 80.16 103.909 80.16ZM110.652 80V71.6H112.3V73.328L112.012 73.52C112.119 73.1467 112.327 72.8053 112.636 72.496C112.945 72.176 113.313 71.92 113.74 71.728C114.167 71.5253 114.604 71.424 115.052 71.424C115.692 71.424 116.225 71.552 116.652 71.808C117.079 72.0533 117.399 72.432 117.612 72.944C117.825 73.456 117.932 74.1013 117.932 74.88V80H116.284V74.992C116.284 74.512 116.22 74.1173 116.092 73.808C115.964 73.488 115.767 73.2587 115.5 73.12C115.233 72.9707 114.903 72.9067 114.508 72.928C114.188 72.928 113.895 72.9813 113.628 73.088C113.361 73.184 113.127 73.3227 112.924 73.504C112.732 73.6853 112.577 73.8987 112.46 74.144C112.353 74.3787 112.3 74.6347 112.3 74.912V80H111.484C111.345 80 111.207 80 111.068 80C110.929 80 110.791 80 110.652 80ZM123.672 80.16C122.904 80.16 122.216 79.9733 121.608 79.6C121.01 79.216 120.536 78.6987 120.184 78.048C119.832 77.3867 119.656 76.6347 119.656 75.792C119.656 74.9493 119.826 74.2027 120.168 73.552C120.52 72.8907 120.994 72.3733 121.592 72C122.189 71.616 122.866 71.424 123.624 71.424C124.04 71.424 124.44 71.4933 124.824 71.632C125.218 71.76 125.57 71.9413 125.88 72.176C126.189 72.4 126.429 72.6507 126.6 72.928C126.781 73.1947 126.872 73.4667 126.872 73.744L126.392 73.776V68.16H128.04V80H126.392V78H126.712C126.712 78.256 126.626 78.512 126.456 78.768C126.285 79.0133 126.056 79.2427 125.768 79.456C125.49 79.6693 125.165 79.84 124.792 79.968C124.429 80.096 124.056 80.16 123.672 80.16ZM123.896 78.736C124.397 78.736 124.84 78.608 125.224 78.352C125.608 78.096 125.906 77.7493 126.12 77.312C126.344 76.864 126.456 76.3573 126.456 75.792C126.456 75.2267 126.344 74.7253 126.12 74.288C125.906 73.84 125.608 73.488 125.224 73.232C124.84 72.976 124.397 72.848 123.896 72.848C123.394 72.848 122.952 72.976 122.568 73.232C122.184 73.488 121.88 73.84 121.656 74.288C121.442 74.7253 121.336 75.2267 121.336 75.792C121.336 76.3573 121.442 76.864 121.656 77.312C121.88 77.7493 122.184 78.096 122.568 78.352C122.952 78.608 123.394 78.736 123.896 78.736Z" fill="#717171"/>
</svg>
